<svg xmlns="http://www.w3.org/2000/svg" width="1526" height="285"><path fill="#fff" fill-rule="evenodd" d="M1299.4 218.1V6.2c0-1.7.5-2.6 2.4-3.1l38.9-2.8c1.9 0 2.9.8 2.9 2.8v215c0 2-.5 2.8-2.6 2.8h-39.2c-1.9 0-2.4-.8-2.4-2.8m-184.4-1.6c-.5 1.7-1.6 2.2-3.2 2.8-13 1.1-20.5 1.7-30.7 1.7-26.9 0-40.5-12.1-40.5-42.4V86.5c0-2-.5-2.9-2.4-2.9h-16c-1.6 0-2.7-1.1-2.7-2.8V61.2c0-1.7.9-2.6 3-2.6h15.7c1.9 0 2.4-1.1 2.4-3l.3-37.1c0-1.7.8-2.5 2.7-2.8l38.9-2.5c1.9 0 2.4.5 2.4 2.8v39.8c0 1.7.8 2.8 3 2.8h20.8c2.1 0 2.9.9 2.9 2.8v19.4c0 1.7-.8 2.5-2.7 2.5h-21c-1.9 0-3 1.2-3 3.1v87.4c0 15.1 6.4 19.3 21.1 19.3h9.1c1.3 0 2.4 1.1 2.4 2.5v.3zM881 60.4v.6l-32.6 123c-3.4 12.3-10.2 35.5-19 52.6-12.7 24.6-21.2 33.5-33.8 45.9-1.4 1.1-3 2-4.9 2h-35.8c-1 0-2.1-.9-2.1-2 0-.3.1-.6.5-1.4.1-.1.6-.7 1.5-1.7 6.5-7 31.9-34.5 38.1-55.3.2-.8.4-1.5.6-2.2v-.3c0-1.7-1.4-2.6-2.5-2.6h-13c-6.5 0-11.4-4.7-13.8-10.5L715.3 60.9c0-.2-.3-.5-.3-.5 0-1.1 1.4-1.7 2.7-1.7h40.2c1.9 0 2.7.3 3.3 2l37.3 130c.5 1.7 1.9 2.5 2.9 2.5h.8c1.4 0 2.2-.9 2.7-2.2l32.5-130.4c.3-1.1 1.4-1.9 2.7-1.9h38.7c1.3 0 2.1.8 2.2 1.7M455.9 219.1c-6.5 0-11.6-7.5-12.9-12.2L399.9 61.5c-.3-.2-.3-.5-.3-.8 0-1.1.8-2 2.7-2h40.5c1.9 0 3 .6 3.5 2.3L478 191.3c.3 1.4 1.9 1.9 3.2 1.9 1.4 0 2.4-.2 3-2.2l32-130.3c.5-1.4 1.8-2 3.5-2h38.1c1.3 0 2.1.9 2.1 2v.8L517 206.8c-1.4 5.2-6 12.2-12.9 12.2zm254.7-66.6H613c-1.6 0-2.4.3-2.4 2.5 0 29.8 15.4 39.1 46.6 39.1 9.9 0 21.6-1.2 34.7-2.5h.8c1.1 0 1.9.2 1.9 2.2v.6l-2.7 21.6c-.5 2-1.1 2.2-2.4 2.6q-.3.1-.5.2c-13.4 2.3-34.7 3.7-44.6 3.7-47.5 0-81.6-18.3-81.6-83.4 0-56.2 29.1-83.1 76-83.1 58.2 0 74.5 32.2 74.5 93.5 0 2.2-1.1 3-2.7 3m-72-69.9c-24.3 0-29.4 19-29.4 41.8 0 2.5.6 3.1 2.4 3.1h53.1c1.9 0 2.9-.3 2.9-2.8 0-23.3-4.2-42.1-29-42.1m249.6 133.1v-20.5c0-1.7.8-2.5 3.2-2.5h.1c7.1.5 24.3 1.9 38.1 1.9 20.8 0 33.8-4.2 33.8-19.1s-15-21.4-31.6-28.4c-20.5-8.8-43.3-18.5-43.3-46.6 0-33.1 30.9-46 66.9-46 15.8 0 32.8 2.5 45.7 5.3 1.5.3 3.1 1.1 3.1 2.8l-3.1 18.8c-.3 1.4-.9 2.3-2.2 2.3h-.5c-2.5-.2-5.5-.4-8.8-.6-8.5-.6-18.6-1.4-25.4-1.4-18.7 0-30.9 2.6-30.9 16.9 0 12.6 13.7 17.9 29.3 24 20.9 8.1 45.3 17.6 45.3 47.6.1 32.6-23.9 52.5-72.2 52.5-16.5 0-33.1-2-44.5-3.9-2.2-.6-3-1.4-3-3.1m382.7-3.4c0 2-.5 3.4-3.2 3.9q-3.9.5-8.1 1.1c-18.6 2.4-40.2 5.1-60.1 5.1-42.2 0-72.3-12-72.3-55 0-42.2 29.3-52.3 63.2-52.3 10.4 0 27.7 2 36.3 3.1 0-25.2-9.3-35.4-40-35.4-9.1 0-21.1.9-31.7 1.7l-3.8.3h-.8c-1.9 0-2.4-.8-3-2.5l-2.3-20.2v-.6c0-1.1.8-1.7 2.1-2.2 13.9-1.7 37.1-3.4 54.2-3.4 42.4 0 69.6 16 69.6 60.9v95.5zm-43.8-68.8c0-1.7-.5-2.2-2.6-2.2h-20.3c-21.1 0-32.3 5.3-32.3 24.7 0 20.8 11.5 27.2 32.3 27.2h20c2.4 0 3-.8 3-2.8v-46.9zm219 78.6c-49.6 0-78.9-27.5-78.9-81.7 0-59 31.2-84.2 78.9-84.2 47.8 0 78.7 24.7 78.7 84.2 0 53.9-29.1 81.7-78.7 81.7m0-140.7c-25.3 0-34.4 15.8-34.4 58.7 0 40.8 9.9 55.9 34.4 55.9 25.1 0 34.2-15.7 34.2-55.9 0-43.2-9.1-58.7-34.2-58.7M182.8 155c0 29.8 15.5 39.1 46.7 39.1 9.9 0 21.6-1.2 34.7-2.5h.8c1.1 0 1.9.2 1.9 2.2v.6l-2.7 21.6c-.5 2-1.1 2.2-2.4 2.6q-.1.1-.2.1-.2.1-.3.1c-13.4 2.3-34.7 3.7-44.6 3.7-47.5 0-81.6-18.3-81.6-83.4 0-56.2 29.1-83.1 76-83.1 58.2 0 74.5 32.2 74.5 93.5 0 2.2-1.1 3-2.7 3h-97.7c-1.5 0-2.4.3-2.4 2.5m1.1-27.5H237c1.9 0 3-.3 3-2.8 0-23.3-4.3-42.1-29.1-42.1-24.3 0-29.4 19-29.4 41.8 0 2.5.5 3.1 2.4 3.1m203-44.1c-8.6.2-14.4.7-21.8 1.2-2.6.2-5.3.4-8.3.6-1.6.1-4.3 1.2-4.3 5.1V216c0 2.2-.8 3-2.7 3h-38.9c-1.6 0-2.7-.8-2.7-2.8V76.6c0-6.4 1.3-12.8 10-13.8 18.6-1.9 47.9-4.7 69.2-5.5 1.6 0 2.5 1.1 2.5 2.8v20.8c0 1.4-1.1 2.5-3 2.5M106.4 40.6v174.1c0 2-.8 3.5-3.3 3.5H60.9c-2 0-2.8-1.2-2.8-3.5V40.6H2.6c-1.7 0-2.8-1.1-2.8-3.2V12.8c0-2.3.6-2.9 3.1-2.9h162.9c1.1 0 2.5.6 2.5 2v.6l-2.5 25.2c-.3 2-1.1 2.9-3.1 2.9z"/></svg>